<svg xmlns="http://www.w3.org/2000/svg" width="512" height="512" viewBox="0 0 512 512">
  <defs>
    <linearGradient id="bg" x1="64" y1="48" x2="448" y2="464" gradientUnits="userSpaceOnUse">
      <stop offset="0" stop-color="#2563EB"/>
      <stop offset="1" stop-color="#1E3A8A"/>
    </linearGradient>
    <linearGradient id="accent" x1="128" y1="88" x2="384" y2="160" gradientUnits="userSpaceOnUse">
      <stop offset="0" stop-color="#34D399"/>
      <stop offset="1" stop-color="#059669"/>
    </linearGradient>
  </defs>
  <rect width="512" height="512" fill="url(#bg)"/>
  <g transform="translate(0 -16)">
    <rect x="138" y="138" width="236" height="272" rx="24" fill="#F8FAFC"/>
    <rect x="178" y="118" width="156" height="44" rx="14" fill="url(#accent)"/>
    <rect x="168" y="188" width="176" height="12" rx="6" fill="#CBD5E1"/>
    <rect x="168" y="220" width="150" height="12" rx="6" fill="#CBD5E1"/>
    <rect x="168" y="252" width="162" height="12" rx="6" fill="#CBD5E1"/>
    <circle cx="180" cy="300" r="16" fill="#059669"/>
    <path d="M173 300 L179 306 L189 294" fill="none" stroke="#FFFFFF" stroke-width="3.5" stroke-linecap="round" stroke-linejoin="round"/>
    <circle cx="180" cy="342" r="16" fill="#059669"/>
    <path d="M173 342 L179 348 L189 336" fill="none" stroke="#FFFFFF" stroke-width="3.5" stroke-linecap="round" stroke-linejoin="round"/>
    <circle cx="180" cy="384" r="16" fill="none" stroke="#94A3B8" stroke-width="3.5"/>
    <text x="256" y="430" text-anchor="middle" font-family="sans-serif" font-size="44" font-weight="bold" fill="#FFFFFF" letter-spacing="5">CTFL</text>
  </g>
</svg>
