<svg xmlns="http://www.w3.org/2000/svg" width="512" height="512" viewBox="0 0 512 512">
  <defs>
    <linearGradient id="bg" x1="64" y1="48" x2="448" y2="464" gradientUnits="userSpaceOnUse">
      <stop offset="0" stop-color="#2563EB"/>
      <stop offset="1" stop-color="#1E3A8A"/>
    </linearGradient>
    <linearGradient id="accent" x1="128" y1="88" x2="384" y2="160" gradientUnits="userSpaceOnUse">
      <stop offset="0" stop-color="#34D399"/>
      <stop offset="1" stop-color="#059669"/>
    </linearGradient>
  </defs>
  <rect width="512" height="512" rx="112" fill="url(#bg)"/>
  <rect x="48" y="48" width="416" height="416" rx="88" fill="none" stroke="#FFFFFF" stroke-opacity="0.12" stroke-width="4"/>
  <rect x="118" y="108" width="276" height="320" rx="28" fill="#F8FAFC"/>
  <rect x="168" y="84" width="176" height="52" rx="16" fill="url(#accent)"/>
  <rect x="158" y="168" width="196" height="14" rx="7" fill="#CBD5E1"/>
  <rect x="158" y="206" width="168" height="14" rx="7" fill="#CBD5E1"/>
  <rect x="158" y="244" width="180" height="14" rx="7" fill="#CBD5E1"/>
  <circle cx="170" cy="300" r="18" fill="#059669"/>
  <path d="M162 300 L168 306 L180 292" fill="none" stroke="#FFFFFF" stroke-width="4" stroke-linecap="round" stroke-linejoin="round"/>
  <circle cx="170" cy="348" r="18" fill="#059669"/>
  <path d="M162 348 L168 354 L180 340" fill="none" stroke="#FFFFFF" stroke-width="4" stroke-linecap="round" stroke-linejoin="round"/>
  <circle cx="170" cy="396" r="18" fill="none" stroke="#94A3B8" stroke-width="4"/>
  <text x="256" y="468" text-anchor="middle" font-family="sans-serif" font-size="52" font-weight="bold" fill="#FFFFFF" letter-spacing="6">CTFL</text>
</svg>
